{"title":"Pixels.2015.HDRiP.XViD.ReLeNTLesS","uid":12481420,"size":1365903079,"categoryP":"video","categoryS":"movies","magnet":"?xt=urn:btih:1e6f001b38c5dca5a7a1cf91e1e9b9537200a819&amp;dn=Pixels.2015.HDRiP.XViD.ReLeNTLesS&amp;tr=udp%3A%2F%2Ftracker.leechers-paradise.org%3A6969&amp;tr=udp%3A%2F%2Fzer0day.ch%3A1337&amp;tr=udp%3A%2F%2Fopen.demonii.com%3A1337&amp;tr=udp%3A%2F%2Ftracker.coppersurfer.tk%3A6969&amp;tr=udp%3A%2F%2Fexodus.desync.com%3A6969","seeders":0,"leechers":0,"uploader":"TvTeam","files":4,"time":1443052049,"description":"------------------------------------------------------------------------\r\n\r  https://www.torrenting.com\r\n\r\nSign up is OPEN - for time being. Come and have fun.\r\n\r\n------------------------------------------------------------------------P0STER\r\n[img]http://i.imgur.com/ogzunSQ.png[/img]\r\n\r\niMDB: http://www.imdb.com/title/tt2120120/\r\n\r\nGeneral\r\nComplete name               : Pixels.2015.HDRiP.XViD.ReLeNTLesS.avi\r\nFormat                      : AVI\r\nFormat/Info                 : Audio Video Interleave\r\nFile size                   : 1.26 GiB\r\nDuration                    : 1h 45mn\r\nOverall bit rate            : 1 703 Kbps\r\n\r\nVideo\r\nID                          : 0\r\nFormat                      : MPEG-4 Visual\r\nFormat profile              : Advanced   \r\nFormat settings, BVOP       : 1\r\nFormat settings, QPel       : No\r\nFormat settings, GMC        : No warppoints\r\nFormat settings, Matrix     : Default (H.263)\r\nMuxing mode                 : Packed bitstream\r\nCodec ID                    : XVID\r\nCodec ID/Hint               : XviD\r\nDuration                    : 1h 45mn\r\nBit rate                    : 1 503 Kbps\r\nWidth                       : 720 pixels\r\nHeight                      : 304 pixels\r\nDisplay aspect ratio        : 2.35:1\r\nFrame rate                  : 30.000 fps\r\nColor space                 : YUV\r\nChroma subsampling          : 4:2:0\r\nBit depth                   : 8 bits\r\nScan type                   : Progressive\r\nCompression mode            : Lossy\r\nBits/(Pixel*Frame)          : 0.229\r\nStream size                 : 1.11 GiB (88%)\r\nWriting library             : XviD 1.2.1 (UTC 2008-12-04)\r\n\r\nAudio\r\nID                          : 1\r\nFormat                      : AC-3\r\nFormat/Info                 : Audio Coding 3\r\nMode extension              : CM (complete main)\r\nFormat settings, Endianness : Big\r\nCodec ID                    : 2000\r\nDuration                    : 1h 45mn\r\nBit rate mode               : Constant\r\nBit rate                    : 192 Kbps\r\nChannel(s)                  : 2 channels\r\nChannel positions           : Front: L R\r\nSampling rate               : 44.1 KHz\r\nCompression mode            : Lossy\r\nStream size                 : 145 MiB (11%)\r\nAlignment                   : Aligned on interleaves\r\nInterleave, duration        : 70 ms (2.09 video frames)\r\nInterleave, preload duratio : 208 ms\r\nTitle                       : Pixels.2015.ReLeNTLesS.audio.2.0.English\r\nSample Included             : Yes\r\nSource                      : Chuck Thanks :)\r\n\r\nPL0T\r\nWhen aliens misinterpret video feeds of classic arcade games as a declaration of war, they attack the Earth in the form of the video games.\r\n\r\nCAST\r\nDirector: Chris Columbus\r\nWriters: Tim Herlihy (screenplay), Timothy Dowling (screenplay)\r\nStars: Adam Sandler, Kevin James, Michelle Monaghan\r\n\r\nN0TE\r\nCropped Black boarders, resized, degrained and sharpend.\r\n\r\nSCREENS\r\n[img]http://i.imgur.com/zLgyNA5.png[/img]\r\n[img]http://i.imgur.com/m3b44fY.png[/img]\r\n[img]http://i.imgur.com/BXbU0KX.png[/img]\r\n[img]http://i.imgur.com/CEK4LTX.png[/img]\r\n[img]http://i.imgur.com/rsTjgrX.png[/img]\r\n[img]http://i.imgur.com/4MEHKjF.png[/img]\r\n[img]http://i.imgur.com/oYYZ8rn.png[/img]\r\n[img]http://i.imgur.com/crYjxNv.png[/img]\r\n\r\nTRAiLER\r\n\r\nGREETZ\r\n\r\n\r\nHIVE-CM8, Blackjesus, M0RPH, M00SE, MiLLENiUM,\r\n\r\nMANiX, TiTAN, Anonymous, TuX, \r\n\r\nACAB, KingStoner, FooKas, 4PlayHD, \r\n\r\nGodFather, Cld.... \r\n\r\nKeep up the good work guyz","torrent":{"xt":"urn:btih:1e6f001b38c5dca5a7a1cf91e1e9b9537200a819","amp;dn":"Pixels.2015.HDRiP.XViD.ReLeNTLesS","amp;tr":["udp%3A%2F%2Ftracker.leechers-paradise.org%3A6969","udp%3A%2F%2Fzer0day.ch%3A1337","udp%3A%2F%2Fopen.demonii.com%3A1337","udp%3A%2F%2Ftracker.coppersurfer.tk%3A6969","udp%3A%2F%2Fexodus.desync.com%3A6969"],"infoHash":"1e6f001b38c5dca5a7a1cf91e1e9b9537200a819","infoHashBuffer":{"type":"Buffer","data":[30,111,0,27,56,197,220,165,167,161,207,145,225,233,185,83,114,0,168,25]},"announce":[],"urlList":[]}}